<svg xmlns="http://www.w3.org/2000/svg" width="1254" height="836" viewBox="0 0 1254 836">
<g>
<path d="M 0.00 0.00 L 1254.00 0.00 L 1254.00 836.00 L 0.00 836.00 ZM 282.00 404.69 C282.00,431.94 282.38,452.02 282.89,451.83 C283.38,451.65 289.68,445.81 296.89,438.86 L 310.00 426.21 L 310.00 411.00 L 325.50 410.97 L 338.25 398.56 C345.26,391.72 351.00,385.88 351.00,385.57 C351.00,385.26 342.00,385.00 331.00,385.00 L 311.00 385.00 L 311.00 359.00 L 344.75 358.98 L 378.50 358.96 L 391.64 345.98 L 404.78 333.00 L 307.19 333.00 L 294.60 345.10 L 282.00 357.21 ZM 309.00 452.18 C309.00,452.58 323.74,452.93 341.76,452.97 L 374.52 453.05 L 393.88 433.59 L 413.24 414.14 L 412.87 388.64 L 412.50 363.14 L 404.50 362.48 C400.10,362.11 395.29,361.97 393.82,362.16 C391.90,362.40 384.98,368.58 369.36,384.00 L 347.59 405.50 L 363.81 406.00 L 380.04 406.50 L 369.61 416.90 L 359.17 427.30 L 345.83 427.74 L 332.50 428.18 L 320.75 439.82 C314.29,446.23 309.00,451.79 309.00,452.18 ZM 792.63 426.53 C802.33,429.99 814.25,427.04 820.82,419.55 C825.08,414.71 826.10,411.89 826.13,404.95 C826.19,392.37 818.38,383.41 805.72,381.57 C789.74,379.23 776.10,390.82 777.18,405.81 C777.90,415.72 783.54,423.29 792.63,426.53 ZM 572.00 383.00 L 572.00 427.00 L 583.00 427.00 L 583.00 397.18 L 586.08 394.59 C588.45,392.59 590.25,392.00 593.95,392.00 C601.11,392.00 601.42,392.73 602.00,410.90 L 602.50 426.50 L 613.50 426.50 L 613.78 411.30 C614.05,396.26 614.08,396.08 616.66,394.05 C620.31,391.18 627.97,391.21 630.60,394.10 C632.26,395.94 632.54,398.14 632.82,411.65 L 633.14 427.10 L 638.32 426.80 L 643.50 426.50 L 643.80 411.00 C644.15,393.13 643.39,389.43 638.45,385.09 C635.29,382.31 634.27,382.00 628.42,382.00 C622.00,382.00 617.55,383.44 613.78,386.75 C612.22,388.12 611.72,387.96 608.49,385.13 C605.36,382.38 604.21,382.00 599.03,382.00 C592.35,382.00 588.52,383.18 585.25,386.24 L 583.00 388.35 L 583.00 385.67 C583.00,383.10 582.80,383.00 577.50,383.00 ZM 841.50 425.75 C841.78,426.56 844.01,427.00 847.80,427.00 L 853.66 427.00 L 857.94 413.75 C860.29,406.46 862.53,400.15 862.93,399.73 C863.32,399.31 865.66,405.16 868.12,412.73 L 872.60 426.50 L 878.33 426.80 C883.97,427.10 884.08,427.05 885.42,423.80 C887.96,417.65 899.00,384.74 899.00,383.31 C899.00,382.23 897.68,381.97 893.28,382.20 L 887.56 382.50 L 882.94 397.00 C879.64,407.39 878.14,410.93 877.64,409.50 C877.26,408.40 875.05,401.88 872.72,395.00 L 868.50 382.50 L 863.32 382.20 L 858.14 381.90 L 853.50 396.55 C850.95,404.61 848.61,410.94 848.30,410.63 C847.98,410.32 845.84,403.86 843.53,396.28 L 839.32 382.50 L 833.13 382.20 L 826.94 381.90 L 827.63 384.68 C828.16,386.77 837.29,413.82 841.50,425.75 ZM 704.65 420.25 L 705.20 427.00 L 717.00 427.00 L 717.00 402.00 L 748.10 402.00 L 747.80 396.25 L 747.50 390.50 L 732.21 390.22 L 716.92 389.95 L 717.21 382.22 L 717.50 374.50 L 752.00 373.95 L 752.00 362.00 L 705.20 362.00 L 704.61 367.75 C703.87,374.86 703.91,411.08 704.65,420.25 ZM 438.71 426.38 C439.10,426.77 441.91,426.96 444.96,426.79 L 450.50 426.50 L 450.78 414.25 L 451.06 402.00 L 481.00 402.00 L 481.00 391.05 L 451.50 390.50 L 450.92 374.00 L 485.00 374.00 L 485.00 363.00 L 438.00 363.00 L 438.00 394.33 C438.00,411.57 438.32,425.99 438.71,426.38 ZM 665.70 426.62 C670.71,428.49 681.53,427.75 687.47,425.12 C689.96,424.01 692.00,422.89 692.00,422.61 C692.00,422.34 691.04,420.49 689.87,418.50 C688.32,415.88 687.29,415.08 686.12,415.58 C675.63,420.06 669.56,419.76 664.31,414.51 C658.16,408.36 658.90,408.00 677.50,408.00 L 694.00 408.00 L 693.98 402.75 C693.94,394.06 688.74,385.73 681.68,383.06 C677.19,381.37 667.01,381.81 662.50,383.90 C654.46,387.62 649.73,395.44 649.69,405.09 C649.65,415.25 655.18,422.69 665.70,426.62 ZM 531.33 426.06 C537.12,428.69 542.75,428.51 548.40,425.50 L 548.59 425.40 C552.01,423.58 553.27,422.91 553.73,423.27 C554.00,423.48 554.00,424.04 554.00,424.92 L 554.00 425.00 C554.00,426.74 554.67,427.00 559.06,427.00 L 564.13 427.00 L 563.81 409.57 C563.53,393.73 563.31,391.88 561.41,389.32 C557.23,383.69 553.45,382.00 544.98,382.00 C537.65,382.00 530.25,383.72 527.41,386.08 C526.40,386.91 526.56,387.84 528.17,390.56 C529.29,392.45 530.27,393.99 530.35,393.98 C530.43,393.98 532.30,393.32 534.50,392.53 C543.50,389.29 553.00,391.80 553.00,397.42 C553.00,399.59 552.53,399.73 543.94,400.29 C532.48,401.03 526.46,403.65 524.29,408.85 C521.42,415.73 524.34,422.89 531.33,426.06 ZM 759.00 361.00 L 759.00 427.00 L 769.82 427.00 L 770.40 423.25 C770.72,421.19 770.81,410.27 770.59,399.00 C770.38,387.73 770.16,374.56 770.10,369.75 L 770.00 361.00 ZM 492.71 426.38 C493.10,426.77 495.69,426.96 498.46,426.79 L 503.50 426.50 L 503.51 412.39 C503.52,397.18 503.82,396.18 509.13,393.43 C510.65,392.65 513.90,392.00 516.34,392.00 C521.25,392.00 522.00,391.13 522.00,385.42 L 522.00 382.00 L 516.93 382.00 C511.56,382.00 508.89,382.98 505.25,386.30 L 503.00 388.35 L 503.00 385.67 C503.00,383.10 502.80,383.00 497.50,383.00 L 492.00 383.00 L 492.00 404.33 C492.00,416.07 492.32,425.99 492.71,426.38 ZM 808.98 415.21 C797.98,423.23 784.64,410.98 790.63,398.36 C792.87,393.66 797.04,391.65 803.36,392.26 C807.37,392.65 808.93,393.36 811.14,395.83 C816.42,401.74 815.45,410.49 808.98,415.21 ZM 549.98 417.18 C545.02,420.86 537.31,420.31 535.07,416.12 C533.56,413.32 533.72,412.28 536.00,410.00 C537.65,408.35 539.33,408.00 545.56,408.00 L 553.12 408.00 L 552.81 411.65 C552.60,414.16 551.71,415.89 549.98,417.18 ZM 683.20 398.00 L 683.50 400.50 L 672.83 400.78 C666.45,400.95 661.91,400.66 661.54,400.06 C660.52,398.41 663.91,392.98 666.61,391.96 C668.00,391.43 671.10,391.00 673.51,391.00 C678.58,391.00 682.70,393.98 683.20,398.00 Z" fill="rgb(4,8,19)"/>
<path d="M 309.00 452.18 C309.00,451.79 314.29,446.23 320.75,439.82 L 332.50 428.18 L 345.83 427.74 L 359.17 427.30 L 369.61 416.90 L 380.04 406.50 L 363.81 406.00 L 347.59 405.50 L 369.36 384.00 C379.34,374.15 385.77,368.07 389.61,364.90 L 383.48 371.22 C379.09,375.75 376.85,378.33 378.49,376.97 C380.14,375.61 381.73,374.18 382.03,373.79 C382.33,373.40 384.20,372.40 386.19,371.56 C388.19,370.73 389.97,369.59 390.16,369.03 C390.35,368.47 392.82,367.16 395.66,366.12 C400.67,364.29 406.79,364.00 410.12,365.42 C411.15,365.86 411.96,365.54 412.34,364.56 C412.86,363.21 411.51,363.00 402.20,363.00 L 392.10 363.00 C392.88,362.48 393.45,362.20 393.82,362.16 C395.29,361.97 400.10,362.11 404.50,362.48 L 412.50 363.14 L 412.87 388.64 L 413.24 414.14 L 393.88 433.59 L 374.52 453.05 L 341.76 452.97 C323.74,452.93 309.00,452.58 309.00,452.18 ZM 792.63 426.53 C783.54,423.29 777.90,415.72 777.18,405.81 C776.10,390.82 789.74,379.23 805.72,381.57 C818.38,383.41 826.19,392.37 826.13,404.95 C826.10,411.89 825.08,414.71 820.82,419.55 C814.25,427.04 802.33,429.99 792.63,426.53 ZM 841.50 425.75 C837.29,413.82 828.16,386.77 827.63,384.68 L 826.94 381.90 L 833.13 382.20 L 839.32 382.50 L 843.53 396.28 C845.84,403.86 847.98,410.32 848.30,410.63 C848.61,410.94 850.95,404.61 853.50,396.55 L 858.14 381.90 L 863.32 382.20 L 868.50 382.50 L 872.72 395.00 C875.05,401.88 877.26,408.40 877.64,409.50 C878.14,410.93 879.64,407.39 882.94,397.00 L 887.56 382.50 L 893.28 382.20 C897.68,381.97 899.00,382.23 899.00,383.31 C899.00,384.74 887.96,417.65 885.42,423.80 C884.08,427.05 883.97,427.10 878.33,426.80 L 872.60 426.50 L 868.12 412.73 C865.66,405.16 863.32,399.31 862.93,399.73 C862.53,400.15 860.29,406.46 857.94,413.75 L 853.66 427.00 L 847.80 427.00 C844.01,427.00 841.78,426.56 841.50,425.75 ZM 704.65 420.25 C703.91,411.08 703.87,374.86 704.61,367.75 L 705.20 362.00 L 752.00 362.00 L 752.00 373.95 L 717.50 374.50 L 717.21 382.22 L 716.92 389.95 L 732.21 390.22 L 747.50 390.50 L 747.80 396.25 L 748.10 402.00 L 717.00 402.00 L 717.00 427.00 L 705.20 427.00 ZM 759.00 361.00 L 770.00 361.00 L 770.10 369.75 C770.16,374.56 770.38,387.73 770.59,399.00 C770.81,410.27 770.72,421.19 770.40,423.25 L 769.82 427.00 L 759.00 427.00 ZM 808.98 415.21 C815.45,410.49 816.42,401.74 811.14,395.83 C808.93,393.36 807.37,392.65 803.36,392.26 C797.04,391.65 792.87,393.66 790.63,398.36 C784.64,410.98 797.98,423.23 808.98,415.21 Z" fill="rgb(26,116,202)"/>
<path d="M 282.00 404.69 L 282.00 357.21 L 294.60 345.10 L 307.19 333.00 L 404.78 333.00 L 369.15 333.14 C349.54,333.21 334.61,333.48 335.97,333.73 C339.29,334.36 341.54,337.16 344.02,343.78 C345.16,346.83 347.08,350.71 348.29,352.41 C350.87,356.04 350.85,356.29 347.81,357.15 C346.54,357.51 353.15,357.84 362.50,357.88 L 379.50 357.96 L 392.15 345.48 L 394.03 343.62 L 391.64 345.98 L 378.50 358.96 L 344.75 358.98 L 311.00 359.00 L 311.00 385.00 L 331.00 385.00 C342.00,385.00 351.00,385.26 351.00,385.57 C351.00,385.64 350.70,386.00 350.14,386.61 C350.07,386.12 348.28,386.09 344.50,386.15 C340.65,386.22 338.59,386.48 339.91,386.73 C341.24,386.98 342.96,387.81 343.73,388.59 C344.72,389.58 345.64,389.71 346.82,389.03 C347.88,388.42 348.69,387.94 349.25,387.55 C347.04,389.88 342.93,394.00 338.25,398.56 L 325.50 410.97 L 310.00 411.00 L 310.00 426.21 L 308.74 427.43 L 297.75 416.31 C291.66,410.15 286.31,404.52 285.86,403.81 C285.40,403.09 284.95,402.95 284.84,403.50 C284.74,404.05 284.36,401.58 284.00,398.00 C283.64,394.42 283.27,405.15 283.17,421.84 L 283.00 451.77 C282.95,451.80 282.91,451.82 282.89,451.83 C282.38,452.02 282.00,431.94 282.00,404.69 ZM 389.61 364.90 C390.61,364.08 391.44,363.45 392.10,363.00 L 402.20 363.00 C411.51,363.00 412.86,363.21 412.34,364.56 C411.96,365.54 411.15,365.86 410.12,365.42 C406.79,364.00 400.67,364.29 395.66,366.12 C392.82,367.16 390.35,368.47 390.16,369.03 C389.97,369.59 388.19,370.73 386.19,371.56 C384.20,372.40 382.33,373.40 382.03,373.79 C381.73,374.18 380.14,375.61 378.49,376.97 C376.85,378.33 379.09,375.75 383.48,371.22 Z" fill="rgb(180,182,185)"/>
<path d="M 283.17 421.84 C283.27,405.15 283.64,394.42 284.00,398.00 C284.36,401.58 284.74,404.05 284.84,403.50 C284.95,402.95 285.40,403.09 285.86,403.81 C286.31,404.52 291.66,410.15 297.75,416.31 L 308.81 427.50 L 295.90 439.84 L 283.00 452.18 L 283.17 421.84 ZM 531.33 426.06 C524.34,422.89 521.42,415.73 524.29,408.85 C526.46,403.65 532.48,401.03 543.94,400.29 C552.53,399.73 553.00,399.59 553.00,397.42 C553.00,391.80 543.50,389.29 534.50,392.53 C532.30,393.32 530.43,393.98 530.35,393.98 C530.27,393.99 529.29,392.45 528.17,390.56 C526.56,387.84 526.40,386.91 527.41,386.08 C530.25,383.72 537.65,382.00 544.98,382.00 C553.45,382.00 557.23,383.69 561.41,389.32 C563.31,391.88 563.53,393.73 563.81,409.57 L 564.13 427.00 L 559.06 427.00 C554.67,427.00 554.00,426.74 554.00,425.00 C554.00,422.50 554.06,422.49 548.40,425.50 C542.75,428.51 537.12,428.69 531.33,426.06 ZM 549.98 417.18 C551.71,415.89 552.60,414.16 552.81,411.65 L 553.12 408.00 L 545.56 408.00 C539.33,408.00 537.65,408.35 536.00,410.00 C533.72,412.28 533.56,413.32 535.07,416.12 C537.31,420.31 545.02,420.86 549.98,417.18 ZM 665.70 426.62 C655.18,422.69 649.65,415.25 649.69,405.09 C649.73,395.44 654.46,387.62 662.50,383.90 C667.01,381.81 677.19,381.37 681.68,383.06 C688.74,385.73 693.94,394.06 693.98,402.75 L 694.00 408.00 L 677.50 408.00 C658.90,408.00 658.16,408.36 664.31,414.51 C669.56,419.76 675.63,420.06 686.12,415.58 C687.29,415.08 688.32,415.88 689.87,418.50 C691.04,420.49 692.00,422.34 692.00,422.61 C692.00,422.89 689.96,424.01 687.47,425.12 C681.53,427.75 670.71,428.49 665.70,426.62 ZM 683.20 398.00 C682.70,393.98 678.58,391.00 673.51,391.00 C671.10,391.00 668.00,391.43 666.61,391.96 C663.91,392.98 660.52,398.41 661.54,400.06 C661.91,400.66 666.45,400.95 672.83,400.78 L 683.50 400.50 L 683.20 398.00 ZM 438.71 426.38 C438.32,425.99 438.00,411.57 438.00,394.33 L 438.00 363.00 L 461.50 363.00 L 485.00 363.00 L 485.00 368.50 L 485.00 374.00 L 467.96 374.00 L 450.92 374.00 L 451.21 382.25 L 451.50 390.50 L 466.25 390.78 L 481.00 391.05 L 481.00 396.53 L 481.00 402.00 L 466.03 402.00 L 451.06 402.00 L 450.78 414.25 L 450.50 426.50 L 444.96 426.79 C441.91,426.96 439.10,426.77 438.71,426.38 ZM 492.71 426.38 C492.32,425.99 492.00,416.07 492.00,404.33 L 492.00 383.00 L 497.50 383.00 C502.80,383.00 503.00,383.10 503.00,385.67 L 503.00 388.35 L 505.25 386.30 C508.89,382.98 511.56,382.00 516.93,382.00 L 522.00 382.00 L 522.00 385.42 C522.00,391.13 521.25,392.00 516.34,392.00 C513.90,392.00 510.65,392.65 509.13,393.43 C503.82,396.18 503.52,397.18 503.51,412.39 L 503.50 426.50 L 498.46 426.79 C495.69,426.96 493.10,426.77 492.71,426.38 ZM 572.00 405.00 L 572.00 383.00 L 577.50 383.00 C582.80,383.00 583.00,383.10 583.00,385.67 L 583.00 388.35 L 585.25 386.24 C588.52,383.18 592.35,382.00 599.03,382.00 C604.21,382.00 605.36,382.38 608.49,385.13 C611.72,387.96 612.22,388.12 613.78,386.75 C617.55,383.44 622.00,382.00 628.42,382.00 C634.27,382.00 635.29,382.31 638.45,385.09 C643.39,389.43 644.15,393.13 643.80,411.00 L 643.50 426.50 L 638.32 426.80 L 633.14 427.10 L 632.82 411.65 C632.54,398.14 632.26,395.94 630.60,394.10 C627.97,391.21 620.31,391.18 616.66,394.05 C614.08,396.08 614.05,396.26 613.78,411.30 L 613.50 426.50 L 608.00 426.50 L 602.50 426.50 L 602.00 410.90 C601.42,392.73 601.11,392.00 593.95,392.00 C590.25,392.00 588.45,392.59 586.08,394.59 L 583.00 397.18 L 583.00 412.09 L 583.00 427.00 L 577.50 427.00 L 572.00 427.00 L 572.00 405.00 ZM 343.73 388.59 C342.96,387.81 341.24,386.98 339.91,386.73 C338.59,386.48 340.65,386.22 344.50,386.15 C351.49,386.03 351.66,386.25 346.82,389.03 C345.64,389.71 344.72,389.58 343.73,388.59 ZM 347.81 357.15 C350.85,356.29 350.87,356.04 348.29,352.41 C347.08,350.71 345.16,346.83 344.02,343.78 C341.54,337.16 339.29,334.36 335.97,333.73 C334.61,333.48 349.54,333.21 369.15,333.14 L 404.79 333.00 L 392.15 345.48 L 379.50 357.96 L 362.50 357.88 C353.15,357.84 346.54,357.51 347.81,357.15 Z" fill="rgb(251,251,252)"/>
</g>
</svg>